<svg id="Capa_1" data-name="Capa 1" xmlns="http://www.w3.org/2000/svg" viewBox="0 0 24.9 24.9"><defs><style>.cls-1{}.cls-2{fill:#333;}</style></defs><path class="cls-1" style="fill:#FFF;fill-rule:evenodd;" d="M22.61,1.11H2.3A1.19,1.19,0,0,0,1.11,2.3V22.61A1.19,1.19,0,0,0,2.3,23.79H22.61a1.18,1.18,0,0,0,1.18-1.18V2.3A1.18,1.18,0,0,0,22.61,1.11ZM9.89,19.61v1H4.22V14.94h1v4l5.18-5.17.7.71L5.93,19.61ZM20.63,9.9h-1v-4l-5.18,5.17-.71-.71,5.18-5.17H15v-1h5.67Z"/><polygon class="cls-2" style="fill:#333;" points="20.63 4.23 20.63 9.9 19.63 9.9 19.63 5.94 14.45 11.11 13.74 10.4 18.92 5.23 14.96 5.23 14.96 4.23 20.63 4.23"/><polygon class="cls-2"  style="fill:#333;" points="5.93 19.61 9.89 19.61 9.89 20.61 4.22 20.61 4.22 14.94 5.22 14.94 5.22 18.9 10.4 13.73 11.1 14.44 5.93 19.61"/></svg>