<?xml version="1.0" encoding="UTF-8"?>
<svg width="30px" height="30px" viewBox="0 0 30 30" version="1.1" xmlns="http://www.w3.org/2000/svg" xmlns:xlink="http://www.w3.org/1999/xlink">
    <title>Medallas/bronce</title>
    <defs>
        <polygon id="path-1" points="0 0.0567123867 29.942701 0.0567123867 29.942701 29.7029636 0 29.7029636"></polygon>
        <linearGradient x1="28.5189353%" y1="-5.54081828%" x2="72.3660645%" y2="99.0148025%" id="linearGradient-3">
            <stop stop-color="#E3AF73" offset="0%"></stop>
            <stop stop-color="#C2773F" offset="100%"></stop>
        </linearGradient>
    </defs>
    <g id="PT_nuevo---cambios-rápidos" stroke="none" stroke-width="1" fill="none" fill-rule="evenodd">
        <g id="1200/Stars_Home-v2-(ranking)" transform="translate(-815.000000, -4129.000000)">
            <g id="Group-15-Copy-8" transform="translate(45.000000, 4129.000000)">
                <g id="Medallas/bronce" transform="translate(770.000000, 0.047151)">
                    <g id="Group-16-Copy">
                        <g id="Group-3">
                            <mask id="mask-2" fill="white">
                                <use xlink:href="#path-1"></use>
                            </mask>
                            <g id="Clip-2"></g>
                            <path d="M14.8454476,1.91854185 L17.7406573,0.256837222 C18.4959021,-0.158588936 19.4608322,0.090666759 19.8804126,0.838433843 C19.8804126,0.879976459 19.9223706,0.921519075 19.9223706,0.963061691 L21.3909021,3.58024649 L24.7055874,3.58024649 C25.5867063,3.58024649 26.2581399,4.28647095 26.2581399,5.11732327 L26.2160769,8.23301946 L29.1111818,9.89472409 C29.8664266,10.3101502 30.1182797,11.2656304 29.6986993,12.0133975 C29.6986993,12.0549401 29.6566364,12.0549401 29.6566364,12.0964827 L28.0622308,14.7136675 L29.7405524,17.580108 C30.1601329,18.3278751 29.9084895,19.2833553 29.1531399,19.6987814 C29.1111818,19.6987814 29.0693287,19.740324 29.0272657,19.740324 L26.3839091,21.1943156 L26.3839091,24.4761822 C26.3839091,25.3485772 25.6706224,26.013259 24.8314615,26.013259 L21.6846084,25.9717164 L20.0062867,28.8381569 C19.5867063,29.585924 18.6216713,29.8351797 17.8665315,29.4197535 C17.8244685,29.4197535 17.8244685,29.3782109 17.7825105,29.3782109 L15.1392587,27.8411341 L12.244049,29.5028387 C11.4888042,29.9182649 10.5238741,29.6690092 10.1042937,28.9212421 C10.1042937,28.8796995 10.0622308,28.8381569 10.0622308,28.7966143 L8.5936993,26.1794295 L5.27911888,26.1794295 C4.3978951,26.1794295 3.72656643,25.473205 3.72656643,24.6423527 L3.76852448,21.5266565 L0.873524476,19.8649519 C0.11827972,19.4495257 -0.133573427,18.4940456 0.286006993,17.7462785 C0.286006993,17.7047359 0.32806993,17.7047359 0.32806993,17.6631932 L1.88041259,15.0460084 L0.202090909,12.179568 C-0.21748951,11.4318009 0.0343636364,10.4763207 0.789503497,10.0608946 C0.831461538,10.0608946 0.873524476,10.0193519 0.915377622,10.0193519 L3.55873427,8.56536038 L3.55873427,5.28349373 C3.55873427,4.4110988 4.27202098,3.74641695 5.11118182,3.74641695 L8.25803497,3.78795957 L9.93635664,0.921519075 C10.3559371,0.173751991 11.320972,-0.0755037042 12.0763217,0.339922454 C12.1181748,0.339922454 12.1181748,0.38146507 12.1601329,0.38146507 L14.8454476,1.91854185 Z" id="Fill-1" fill="url(#linearGradient-3)" mask="url(#mask-2)"></path>
                        </g>
                        <path d="M20.3839825,26.013259 L18.7056608,28.8796995 C18.5377238,29.1704978 18.2860804,29.3782109 18.0343322,29.5028387 C18.747514,29.8351797 19.6287378,29.585924 20.0483182,28.8796995 L21.7266399,26.0548016 L20.3839825,26.013259 Z" id="Fill-4" fill="#B16A3B"></path>
                        <path d="M29.7405524,17.5800872 L28.0622308,14.7136467 L29.6566364,12.096462 C29.6566364,12.0549193 29.6986993,12.0549193 29.6986993,12.0133767 C30.1182797,11.2656096 29.8664266,10.3101295 29.1111818,9.89470332 L26.2160769,8.23299868 L26.2581399,5.1173025 C26.2581399,4.24501142 25.5447483,3.58022571 24.7055874,3.58022571 L21.3909021,3.58022571 L19.9223706,0.963040919 C19.9223706,0.92160216 19.8804126,0.879955688 19.8804126,0.838413072 C19.4608322,0.132188603 18.5798182,-0.116963235 17.8665315,0.215273835 C18.1602378,0.339901682 18.370028,0.547614761 18.5377552,0.838413072 C18.5377552,0.879955688 18.5798182,0.92160216 18.5798182,0.963040919 L20.0483497,3.58022571 L23.3629301,3.58022571 C24.2441538,3.58022571 24.9153776,4.28645018 24.9153776,5.1173025 L24.8735245,8.23299868 L27.7685245,9.89470332 C28.5237692,10.3101295 28.7756224,11.2656096 28.356042,12.0133767 C28.356042,12.0549193 28.313979,12.0549193 28.313979,12.096462 L26.7616364,14.7136467 L28.439958,17.5800872 C28.8595385,18.3278543 28.6076853,19.2833345 27.8524406,19.6987606 C27.8105874,19.6987606 27.7685245,19.7403033 27.7266713,19.7403033 L25.0833147,21.1942948 L25.0833147,24.4761615 C25.0833147,25.2654712 24.4539441,25.930153 23.6985944,26.0132382 L24.8314615,26.0132382 C25.7126853,26.0132382 26.3839091,25.3070138 26.3839091,24.4761615 L26.3839091,21.1942948 L29.0272657,19.7403033 C29.0693287,19.7403033 29.1111818,19.6987606 29.1531399,19.6987606 C29.9084895,19.2417919 30.2020909,18.3278543 29.7405524,17.5800872" id="Fill-6" fill="#B16A3B"></path>
                        <path d="M15.5588077,4.95117358 C18.3279336,4.95117358 20.8454161,6.07282421 22.6497168,7.85915668 C24.4539126,9.64548916 25.5867797,12.1380461 25.5867797,14.8798588 C25.5867797,17.6216714 24.4539126,20.1142283 22.6497168,21.9005608 C20.8454161,23.6867894 18.3279336,24.8085439 15.5588077,24.8085439 C12.7895769,24.8085439 10.2720944,23.6867894 8.46779371,21.9005608 C6.6635979,20.1142283 5.53073077,17.6216714 5.53073077,14.8798588 C5.53073077,12.1380461 6.6635979,9.64548916 8.46779371,7.85915668 C10.2720944,6.07282421 12.7895769,4.95117358 15.5588077,4.95117358 M21.4329336,9.02234993 C19.9224441,7.52681576 17.824542,6.61287821 15.5588077,6.61287821 C13.2511154,6.61287821 11.1950664,7.52681576 9.68468182,9.02234993 C8.17419231,10.5178841 7.25111538,12.5950149 7.25111538,14.8383161 C7.25111538,17.12316 8.17419231,19.2002908 9.68468182,20.6542824 C11.1950664,22.1498165 13.2929685,23.0636502 15.5588077,23.0636502 C17.8665,23.0636502 19.9224441,22.1498165 21.4329336,20.6542824 C22.9433182,19.1587482 23.8663951,17.0816174 23.8663951,14.8383161 C23.8663951,12.5950149 22.9433182,10.5178841 21.4329336,9.02234993" id="Fill-8" fill="#B16A3B"></path>
                        <path d="M15.0133322,4.95117358 C17.782458,4.95117358 20.2999406,6.07282421 22.1042413,7.85915668 C23.9084371,9.64548916 25.0413042,12.1380461 25.0413042,14.8798588 C25.0413042,17.6216714 23.9084371,20.1142283 22.1042413,21.9005608 C20.2999406,23.6867894 17.782458,24.8085439 15.0133322,24.8085439 C12.2441014,24.8085439 9.72661888,23.6867894 7.92231818,21.9005608 C6.11822727,20.1142283 4.98525524,17.6216714 4.98525524,14.8798588 C4.98525524,12.1380461 6.11822727,9.64548916 7.92231818,7.85915668 C9.72661888,6.07282421 12.2441014,4.95117358 15.0133322,4.95117358 M20.887458,9.02234993 C19.3769685,7.52681576 17.2790664,6.61287821 15.0133322,6.61287821 C12.7056399,6.61287821 10.6495909,7.52681576 9.13920629,9.02234993 C7.62871678,10.5178841 6.70563986,12.5950149 6.70563986,14.8383161 C6.70563986,17.12316 7.62871678,19.2002908 9.13920629,20.6542824 C10.6495909,22.1498165 12.747493,23.0636502 15.0133322,23.0636502 C17.3210245,23.0636502 19.3769685,22.1498165 20.887458,20.6542824 C22.3978427,19.1587482 23.3210245,17.0816174 23.3210245,14.8383161 C23.3629825,12.5950149 22.3978427,10.5178841 20.887458,9.02234993" id="Fill-10" fill="#F29C4E"></path>
                    </g>
                    <text id="3" font-family="NewYork-Regular, New York" font-size="14" font-weight="normal" fill="#B16A3B">
                        <tspan x="11.9999873" y="20.0567124">3</tspan>
                    </text>
                </g>
            </g>
        </g>
    </g>
</svg>