<?xml version="1.0" encoding="UTF-8"?>
<svg width="35px" height="35px" viewBox="0 0 35 35" version="1.1" xmlns="http://www.w3.org/2000/svg" xmlns:xlink="http://www.w3.org/1999/xlink">
    <title>Icono/Conducir cansado/Cafe@1,5x</title>
    <g id="Icono/Conducir-cansado/Cafe" stroke="none" stroke-width="1" fill="none" fill-rule="evenodd" stroke-linecap="round" stroke-linejoin="round">
        <g id="Group-17" transform="translate(4.000000, 4.000000)" stroke="#666666" stroke-width="1.3">
            <path d="M1.2671,10.1825 L1.1891,16.3055 C1.1891,16.3055 1.1891,21.8855 6.6151,24.1335 L17.8531,24.1335 C17.8531,24.1335 22.3481,21.4975 22.5031,16.3055 C22.5751,13.9285 22.4261,10.1825 22.4261,10.1825 L1.2671,10.1825 Z" id="Stroke-1"></path>
            <path d="M22.5034,11.8876 L27.3864,11.8876 C27.3864,11.8876 27.4504,15.3196 27.3864,16.4596 C27.3214,17.5986 26.4564,21.1886 21.3414,20.3356" id="Stroke-3"></path>
            <path d="M22.6587,14.1347 L25.0607,14.1347 C25.0607,14.1347 25.1257,16.2037 24.8747,17.0217 C24.7637,17.3787 24.1037,18.3407 22.1937,18.0877" id="Stroke-5"></path>
            <path d="M21.2661,27.5331 L3.4531,27.5331 C1.9051,27.5331 0.6501,26.2781 0.6501,24.7301 L0.6501,24.1371 L24.0681,24.1371 L24.0681,24.7301 C24.0681,26.2781 22.8141,27.5331 21.2661,27.5331 Z" id="Stroke-7"></path>
            <path d="M8.7173,1.9413 C8.7173,1.9413 7.4283,2.5953 8.8793,5.1153 C9.9013,6.8893 8.5563,8.2343 8.5563,8.2343" id="Stroke-9"></path>
            <path d="M11.7837,0.6503 C11.7837,0.6503 10.4947,1.3043 11.9447,3.8243 C12.9677,5.5983 11.6227,6.9433 11.6227,6.9433" id="Stroke-11"></path>
            <path d="M14.7427,2.0487 C14.7427,2.0487 13.4537,2.7027 14.9037,5.2227 C15.9257,6.9967 14.5807,8.3417 14.5807,8.3417" id="Stroke-13"></path>
            <path d="M19.6372,14.6893 C19.6372,14.6893 20.5512,17.2713 17.4862,20.7673" id="Stroke-15"></path>
        </g>
    </g>
</svg>