<?xml version="1.0" encoding="UTF-8"?>
<svg width="35px" height="35px" viewBox="0 0 35 35" version="1.1" xmlns="http://www.w3.org/2000/svg" xmlns:xlink="http://www.w3.org/1999/xlink">
    <title>Icono/Conducir cansado/Cama@1,5x</title>
    <g id="Icono/Conducir-cansado/Cama" stroke="none" stroke-width="1" fill="none" fill-rule="evenodd" stroke-linecap="round" stroke-linejoin="round">
        <g id="Group-15" transform="translate(1.000000, 6.000000)" stroke="#666666" stroke-width="1.3">
            <path d="M31.7451,17.4694 L31.7451,13.0894 C31.7451,12.1184 30.9581,11.3314 29.9861,11.3314 L29.6151,11.3314 L3.9561,11.3314 L3.5851,11.3314 C2.6131,11.3314 1.8261,12.1184 1.8261,13.0894 L1.8261,17.4694" id="Stroke-1"></path>
            <path d="M32.9209,20.2164 L0.6499,20.2164 L0.6499,18.5984 C0.6499,17.9754 1.1549,17.4694 1.7789,17.4694 L31.7919,17.4694 C32.4159,17.4694 32.9209,17.9754 32.9209,18.5984 L32.9209,20.2164 Z" id="Stroke-3"></path>
            <path d="M29.6142,11.3307 L3.9572,11.3307 L3.9572,4.3777 C3.9572,2.3187 5.6252,0.6497 7.6842,0.6497 L25.8862,0.6497 C27.9452,0.6497 29.6142,2.3187 29.6142,4.3777 L29.6142,11.3307 Z" id="Stroke-5"></path>
            <polygon id="Stroke-7" points="1.8301 20.2203 1.8301 22.9843 3.1721 22.9843 4.4851 20.2333"></polygon>
            <polygon id="Stroke-9" points="31.7412 20.2174 31.7412 22.9804 30.4002 22.9804 29.0862 20.2294"></polygon>
            <path d="M15.8467,11.3307 L6.1137,11.3307 L6.1137,9.1607 C6.1137,8.1597 6.9247,7.3487 7.9257,7.3487 L14.0347,7.3487 C15.0347,7.3487 15.8467,8.1597 15.8467,9.1607 L15.8467,11.3307 Z" id="Stroke-11"></path>
            <path d="M27.4131,11.3248 L17.6801,11.3248 L17.6801,9.0208 C17.6801,8.0948 18.4321,7.3438 19.3581,7.3438 L25.7351,7.3438 C26.6621,7.3438 27.4131,8.0948 27.4131,9.0208 L27.4131,11.3248 Z" id="Stroke-13"></path>
        </g>
    </g>
</svg>