<?xml version="1.0" encoding="UTF-8"?>
<svg width="35px" height="35px" viewBox="0 0 35 35" version="1.1" xmlns="http://www.w3.org/2000/svg" xmlns:xlink="http://www.w3.org/1999/xlink">
    <title>Icono/Conducir cansado/Comida@1,5x</title>
    <g id="Icono/Conducir-cansado/Comida" stroke="none" stroke-width="1" fill="none" fill-rule="evenodd">
        <g id="Group-45" transform="translate(2.000000, 0.000000)">
            <path d="M26.5707,26.6493 L29.9897,26.6493 L30.1557,26.6493 C30.4017,26.6493 30.6007,26.4493 30.6007,26.2023 L30.6007,24.9743 C30.6007,24.7273 30.4017,24.5273 30.1557,24.5273 L30.0247,24.5273 L13.2007,24.5273 L13.0137,24.5273 C12.7667,24.5273 12.5667,24.7273 12.5667,24.9743 L12.5667,26.2023 C12.5667,26.4493 12.7667,26.6493 13.0137,26.6493 L13.2367,26.6493 L17.5827,26.6493 L24.4527,26.6493" id="Stroke-1" stroke="#666666" stroke-width="1.3" stroke-linecap="round" stroke-linejoin="round"></path>
            <path d="M30.601,27.1034 L30.601,28.3324 C30.601,28.5794 30.402,28.7784 30.156,28.7784 L13.014,28.7784 C12.767,28.7784 12.567,28.5794 12.567,28.3324 L12.567,27.1034 C12.567,26.8564 12.767,26.6574 13.014,26.6574 L24.462,26.6574 L25.535,27.4474 L26.56,26.6574 L30.156,26.6574 C30.402,26.6574 30.601,26.8564 30.601,27.1034 Z" id="Stroke-3" stroke="#666666" stroke-width="1.3" stroke-linecap="round" stroke-linejoin="round"></path>
            <polyline id="Stroke-5" stroke="#666666" stroke-width="1.3" stroke-linecap="round" stroke-linejoin="round" points="24.4525 26.6493 24.4625 26.6573 25.5345 27.4473 26.5595 26.6573 26.5705 26.6493"></polyline>
            <path d="M29.9897,26.6493 C29.9907,26.6523 29.9907,26.6543 29.9897,26.6573" id="Stroke-7" stroke="#666666" stroke-width="1.3" stroke-linecap="round" stroke-linejoin="round"></path>
            <path d="M13.2006,24.5273 C13.3936,22.7503 14.1376,21.1373 15.2586,19.8643 C15.4976,19.5923 15.7536,19.3373 16.0246,19.0973 C16.7946,18.4203 17.6866,17.8813 18.6676,17.5173 C19.5836,17.1753 20.5766,16.9903 21.6126,16.9903 C25.9726,16.9903 29.5646,20.2893 30.0246,24.5273" id="Stroke-9" stroke="#666666" stroke-width="1.3" stroke-linecap="round" stroke-linejoin="round"></path>
            <path d="M29.8666,28.7782 L29.8666,32.1552 C29.8666,33.1452 29.0626,33.9482 28.0716,33.9482 L16.7156,33.9482 L15.0496,33.9482 C14.0576,33.9482 13.2536,33.1452 13.2536,32.1552 L13.2536,28.7782" id="Stroke-11" stroke="#666666" stroke-width="1.3" stroke-linecap="round" stroke-linejoin="round"></path>
            <polyline id="Stroke-13" stroke="#666666" stroke-width="1.3" stroke-linecap="round" stroke-linejoin="round" points="16.6645 33.955 4.9045 33.955 4.5105 30.194 3.6905 22.395 2.6205 12.184 2.6135 12.124 13.9625 12.124 19.2585 12.124 19.2515 12.184 18.8095 15.895 18.6095 17.518"></polyline>
            <path d="M19.9721,12.1835 L1.9521,12.1835 C1.2331,12.1835 0.6501,11.6005 0.6501,10.8815 L0.6501,10.5315 C0.6501,9.8125 1.2331,9.2295 1.9521,9.2295 L19.9721,9.2295 C20.6921,9.2295 21.2751,9.8125 21.2751,10.5315 L21.2751,10.8815 C21.2751,11.6005 20.6921,12.1835 19.9721,12.1835 Z" id="Stroke-15" stroke="#666666" stroke-width="1.3" stroke-linecap="round" stroke-linejoin="round"></path>
            <path d="M18.5033,9.2284 C18.5353,9.1674 18.5533,9.0994 18.5533,9.0254 L18.5533,6.9594 C18.5533,6.7144 18.3543,6.5154 18.1083,6.5154 L12.5383,6.5154 L9.9653,6.5154 L3.8153,6.5154 C3.5693,6.5154 3.3703,6.7144 3.3703,6.9594 L3.3703,9.0254 C3.3703,9.0994 3.3893,9.1674 3.4203,9.2284" id="Stroke-17" stroke="#666666" stroke-width="1.3" stroke-linecap="round" stroke-linejoin="round"></path>
            <polyline id="Stroke-19" stroke="#666666" stroke-width="1.3" stroke-linecap="round" stroke-linejoin="round" points="13.9623 12.1239 13.9023 12.1839 3.6913 22.3949"></polyline>
            <polyline id="Stroke-21" stroke="#666666" stroke-width="1.3" stroke-linecap="round" stroke-linejoin="round" points="4.5102 30.1943 15.2582 19.4463 16.0252 18.6793 18.8092 15.8953"></polyline>
            <path d="M12.5385,6.5155 C12.5425,6.4925 12.5445,6.4675 12.5445,6.4435 L12.5445,1.2165 C12.5445,0.9025 12.2975,0.6475 11.9955,0.650473798 C10.7315,0.6595 7.6365,0.6775 6.3715,0.6645 C6.0665,0.6615 5.8195,0.9165 5.8195,1.2315 L5.8195,2.2805 C5.8195,2.5945 6.0635,2.8475 6.3655,2.8475 L9.4145,2.8475 C9.7165,2.8475 9.9605,3.1025 9.9605,3.4145 L9.9605,6.4435 C9.9605,6.4675 9.9615,6.4925 9.9655,6.5155" id="Stroke-23" stroke="#666666" stroke-width="1.3" stroke-linecap="round" stroke-linejoin="round"></path>
            <path d="M20.2377,19.3788 L19.8837,19.3788 C19.6177,19.3788 19.4007,19.1618 19.4007,18.8958 C19.4007,18.6288 19.6177,18.4128 19.8837,18.4128 L20.2377,18.4128 C20.5047,18.4128 20.7207,18.6288 20.7207,18.8958 C20.7207,19.1618 20.5047,19.3788 20.2377,19.3788" id="Fill-25" fill="#333333"></path>
            <path d="M20.2377,19.3788 L19.8837,19.3788 C19.6177,19.3788 19.4007,19.1618 19.4007,18.8958 C19.4007,18.6288 19.6177,18.4128 19.8837,18.4128 L20.2377,18.4128 C20.5047,18.4128 20.7207,18.6288 20.7207,18.8958 C20.7207,19.1618 20.5047,19.3788 20.2377,19.3788 Z" id="Stroke-27" stroke="#666666" stroke-width="1.3"></path>
            <path d="M18.2738,20.9902 L17.9198,20.9902 C17.6528,20.9902 17.4368,20.7742 17.4368,20.5082 C17.4368,20.2412 17.6528,20.0252 17.9198,20.0252 L18.2738,20.0252 C18.5408,20.0252 18.7558,20.2412 18.7558,20.5082 C18.7558,20.7742 18.5408,20.9902 18.2738,20.9902" id="Fill-29" fill="#333333"></path>
            <path d="M18.2738,20.9902 L17.9198,20.9902 C17.6528,20.9902 17.4368,20.7742 17.4368,20.5082 C17.4368,20.2412 17.6528,20.0252 17.9198,20.0252 L18.2738,20.0252 C18.5408,20.0252 18.7558,20.2412 18.7558,20.5082 C18.7558,20.7742 18.5408,20.9902 18.2738,20.9902 Z" id="Stroke-31" stroke="#666666" stroke-width="1.3"></path>
            <path d="M23.2602,19.7812 L22.9062,19.7812 C22.6392,19.7812 22.4232,19.5652 22.4232,19.2992 C22.4232,19.0322 22.6392,18.8162 22.9062,18.8162 L23.2602,18.8162 C23.5272,18.8162 23.7422,19.0322 23.7422,19.2992 C23.7422,19.5652 23.5272,19.7812 23.2602,19.7812" id="Fill-33" fill="#333333"></path>
            <path d="M23.2602,19.7812 L22.9062,19.7812 C22.6392,19.7812 22.4232,19.5652 22.4232,19.2992 C22.4232,19.0322 22.6392,18.8162 22.9062,18.8162 L23.2602,18.8162 C23.5272,18.8162 23.7422,19.0322 23.7422,19.2992 C23.7422,19.5652 23.5272,19.7812 23.2602,19.7812 Z" id="Stroke-35" stroke="#666666" stroke-width="1.3"></path>
            <path d="M25.4428,20.9902 L25.0888,20.9902 C24.8228,20.9902 24.6058,20.7742 24.6058,20.5082 C24.6058,20.2412 24.8228,20.0252 25.0888,20.0252 L25.4428,20.0252 C25.7098,20.0252 25.9248,20.2412 25.9248,20.5082 C25.9248,20.7742 25.7098,20.9902 25.4428,20.9902" id="Fill-37" fill="#333333"></path>
            <path d="M25.4428,20.9902 L25.0888,20.9902 C24.8228,20.9902 24.6058,20.7742 24.6058,20.5082 C24.6058,20.2412 24.8228,20.0252 25.0888,20.0252 L25.4428,20.0252 C25.7098,20.0252 25.9248,20.2412 25.9248,20.5082 C25.9248,20.7742 25.7098,20.9902 25.4428,20.9902 Z" id="Stroke-39" stroke="#666666" stroke-width="1.3"></path>
            <path d="M21.6654,21.3261 L21.3114,21.3261 C21.0444,21.3261 20.8284,21.1101 20.8284,20.8441 C20.8284,20.5771 21.0444,20.3601 21.3114,20.3601 L21.6654,20.3601 C21.9324,20.3601 22.1474,20.5771 22.1474,20.8441 C22.1474,21.1101 21.9324,21.3261 21.6654,21.3261" id="Fill-41" fill="#333333"></path>
            <path d="M21.6654,21.3261 L21.3114,21.3261 C21.0444,21.3261 20.8284,21.1101 20.8284,20.8441 C20.8284,20.5771 21.0444,20.3601 21.3114,20.3601 L21.6654,20.3601 C21.9324,20.3601 22.1474,20.5771 22.1474,20.8441 C22.1474,21.1101 21.9324,21.3261 21.6654,21.3261 Z" id="Stroke-43" stroke="#666666" stroke-width="1.3"></path>
        </g>
    </g>
</svg>