<svg id="Capa_1" data-name="Capa 1" xmlns="http://www.w3.org/2000/svg" viewBox="0 0 35 35"><defs><style>.cls-1{fill:#666;}</style></defs><path class="cls-1" d="M33.49,15.9V14.53a3.07,3.07,0,0,0-3.06-3.09l-4.46,0a10.68,10.68,0,0,0-2.5-2.52l0-4.18a3,3,0,0,0-.89-2.18,3.1,3.1,0,0,0-2.17-.91h-.83a2.58,2.58,0,0,0-1.8-.73h0A2.59,2.59,0,0,0,16,1.6h-1.4a3.09,3.09,0,0,0-2.16.89,3.06,3.06,0,0,0-.91,2.17l0,4.18A10.36,10.36,0,0,0,9,11.33l-4.37,0h0a3.09,3.09,0,0,0-3.07,3.07v.84A2.63,2.63,0,0,0,.79,17a2.58,2.58,0,0,0,.72,1.8v1.37a3.08,3.08,0,0,0,3.06,3.09l4.37,0a10.5,10.5,0,0,0,2.5,2.52l0,4.48a3.07,3.07,0,0,0,3.07,3.09h.82a2.58,2.58,0,0,0,1.8.73h0a2.55,2.55,0,0,0,1.78-.71H20.3a3.07,3.07,0,0,0,3.07-3.06l0-4.48a10.41,10.41,0,0,0,2.51-2.49l4.47,0h0a3.07,3.07,0,0,0,3.07-3.07V19.5a2.61,2.61,0,0,0,.74-1.8A2.58,2.58,0,0,0,33.49,15.9ZM30.4,22.44h0l-3.88,0,0-.05a10.25,10.25,0,0,0,.8-1.82h2.2a1.08,1.08,0,0,0,.94-.53,2.51,2.51,0,0,0,1.11.26h0a2.51,2.51,0,0,0,.9-.16v.2a2,2,0,0,1-.63,1.49A2.07,2.07,0,0,1,30.4,22.44Zm-10.11,10h-.75a2.59,2.59,0,0,0,0-1.87,1.08,1.08,0,0,0,.69-.32,1.06,1.06,0,0,0,.32-.77l0-4.66v-.09a.89.89,0,0,1,.4-.65.78.78,0,0,1,.52-.18,1,1,0,0,1,.58.21.88.88,0,0,1,.35.73V25l0,5.38a2.1,2.1,0,0,1-.62,1.5A2.17,2.17,0,0,1,20.29,32.45Zm-7.9-6,0,0,.06-.11,0,.13.12.06a11.15,11.15,0,0,0,1.69.72v2.21a1.09,1.09,0,0,0,.52.93,2.56,2.56,0,0,0-.26,1.12,2.62,2.62,0,0,0,.16.92h-.19a2.12,2.12,0,0,1-2.11-2.13Zm2.83,1.07a9.4,9.4,0,0,0,1.54.21v.7h1v-.68a10.92,10.92,0,0,0,1.88-.21v2a.13.13,0,0,1-.13.13h-.59a2.48,2.48,0,0,0-1.74-.69h0a2.51,2.51,0,0,0-1.74.67h0a.15.15,0,0,1-.1,0,.12.12,0,0,1,0-.09Zm5.19-4.2h0l0,0a1.85,1.85,0,0,0-.74,1.28v.09l0,1.83a9.62,9.62,0,0,1-2.14.24h-.05a9.19,9.19,0,0,1-2.28-.29,4.4,4.4,0,0,1-.71-.22.53.53,0,0,1-.12,0l-.07,0a8.55,8.55,0,0,1-1.89-.94,5.87,5.87,0,0,1-.67-.48l0,0a9.54,9.54,0,0,1-1.5-1.48h0a1.87,1.87,0,0,0,1.42-3v0l0,0a1.87,1.87,0,0,0-1.28-.73h0l-2,0A8.91,8.91,0,0,1,8,17.3,9.25,9.25,0,0,1,8.32,15a5.47,5.47,0,0,1,.21-.7,2.09,2.09,0,0,1,.11-.3,8.58,8.58,0,0,1,.9-1.79c.15-.23.29-.43.44-.62H10v-.08A9.35,9.35,0,0,1,11.51,10v.25h0a1.88,1.88,0,0,0,.73,1.36,1.8,1.8,0,0,0,1.15.41h0a1.82,1.82,0,0,0,1.09-.35h0l0,0a1.85,1.85,0,0,0,.73-1.28.66.66,0,0,0,0-.14l0-2.08a9.62,9.62,0,0,1,2.14-.24h.05a9.25,9.25,0,0,1,2.28.29c.23.06.45.13.7.22a5.34,5.34,0,0,1,.55.2,9.41,9.41,0,0,1,1.54.8c.24.16.44.31.62.45l.08.06a8.75,8.75,0,0,1,1.5,1.48,1.88,1.88,0,0,0-1.34.72,1.85,1.85,0,0,0-.05,2.26v0l0,0a1.88,1.88,0,0,0,1.28.74h.11l1.82,0a9.42,9.42,0,0,1,.24,2.19,9.19,9.19,0,0,1-.29,2.28,4.4,4.4,0,0,1-.22.71.53.53,0,0,1,0,.12l0,.09a8.63,8.63,0,0,1-.94,1.87,7.37,7.37,0,0,1-.47.67l0,0a9.6,9.6,0,0,1-1.48,1.51,1.91,1.91,0,0,0-1.88-1.74h0A1.91,1.91,0,0,0,20.41,23.29ZM4.6,12.26h0l3.78,0a10,10,0,0,0-.82,1.88H5.45a1.07,1.07,0,0,0-.93.53,2.51,2.51,0,0,0-1.11-.26h0a2.8,2.8,0,0,0-.9.16v-.2A2.12,2.12,0,0,1,4.6,12.26Zm.72,3a.18.18,0,0,1,0-.1.18.18,0,0,1,.09,0H7.31a9.61,9.61,0,0,0-.2,1.54H6.38v1h.7a10.2,10.2,0,0,0,.21,1.88H5.43a.13.13,0,0,1-.09,0,.12.12,0,0,1,0-.09v-.58A2.53,2.53,0,0,0,6,17a2.49,2.49,0,0,0-.67-1.75Zm-1.93.28h0a1.49,1.49,0,0,1,1,2.61l0,0a1.46,1.46,0,0,1-1,.35h0a1.44,1.44,0,0,1-.91-.32l-.05,0a1.49,1.49,0,0,1,0-2.3A1.45,1.45,0,0,1,3.39,15.52Zm-.93,3.93a2.63,2.63,0,0,0,.92.17,2.56,2.56,0,0,0,1-.18,1,1,0,0,0,.32.67,1.08,1.08,0,0,0,.76.33l4.66,0h.09a1,1,0,0,1,.66.4.83.83,0,0,1,.18.53.92.92,0,0,1-.21.58,1,1,0,0,1-.74.35H10l-5.39,0a2.12,2.12,0,0,1-2.1-2.13ZM14.61,2.55h.76a2.64,2.64,0,0,0,0,1.89,1.08,1.08,0,0,0-1,1.08l0,4.65v.1a.91.91,0,0,1-.39.65.83.83,0,0,1-.53.18h0a.92.92,0,0,1-.58-.21.91.91,0,0,1-.35-.73V10l0-5.38a2.12,2.12,0,0,1,2.11-2.11Zm7.92,5.73a10.91,10.91,0,0,0-1.88-.82V5.55a1.07,1.07,0,0,0-.52-.93A2.7,2.7,0,0,0,20.4,3.5a2.82,2.82,0,0,0-.16-.92h.19a2.11,2.11,0,0,1,1.5.63,2.05,2.05,0,0,1,.61,1.5ZM19.7,7.21A9.27,9.27,0,0,0,18.1,7V6.32h-1V7a9.56,9.56,0,0,0-1.82.21V5.52a.13.13,0,0,1,.13-.13H16a2.5,2.5,0,0,0,1.74.69h0a2.53,2.53,0,0,0,1.74-.67h0a.13.13,0,0,1,.13.13Zm8.09,10.94h.7v-1h-.65a10.61,10.61,0,0,0-.22-2h1.95a.13.13,0,0,1,.13.13v.58a2.58,2.58,0,0,0,0,3.49v0a.13.13,0,0,1,0,.1.11.11,0,0,1-.09,0H27.6A9.51,9.51,0,0,0,27.79,18.15Zm-2.86-3.08Zm7.61.19a2.67,2.67,0,0,0-.92-.17h0a2.55,2.55,0,0,0-.95.18,1.09,1.09,0,0,0-1.08-1l-4.54,0h-.21a.91.91,0,0,1-.66-.4A.81.81,0,0,1,24,13.3a.87.87,0,0,1,.21-.57.93.93,0,0,1,.74-.36h.11l5.39,0a2.12,2.12,0,0,1,2.1,2.13Zm0,3.59a1.45,1.45,0,0,1-1,.34h0a1.48,1.48,0,0,1-1-.39,1.51,1.51,0,0,1-.49-1.12,1.49,1.49,0,0,1,.5-1.1l0,0a1.46,1.46,0,0,1,1-.35h0a1.47,1.47,0,0,1,.9.31l.06.05a1.51,1.51,0,0,1,.53,1.15,1.53,1.53,0,0,1-.55,1.15ZM17.8,2h0A1.52,1.52,0,0,1,19,2.53a1.49,1.49,0,0,1-.06,2A1.45,1.45,0,0,1,17.8,5h0a1.5,1.5,0,0,1-1.49-1.5,1.46,1.46,0,0,1,.35-1A1.49,1.49,0,0,1,17.8,2Zm.34,30.61a1.06,1.06,0,0,1-.26.2.78.78,0,0,1-.29.13,1.16,1.16,0,0,1-.47.08h0a1.48,1.48,0,0,1-1-.42L16,32.47l0,0a1.44,1.44,0,0,1-.31-.92,1.42,1.42,0,0,1,.36-1l0,0,0-.06s.05,0,.05-.05a1.47,1.47,0,0,1,1-.38h0a1.45,1.45,0,0,1,1,.38l.05.05.07.07a1.49,1.49,0,0,1,.38,1,1.51,1.51,0,0,1-.35,1Z"/></svg>