<svg id="Capa_1" data-name="Capa 1" xmlns="http://www.w3.org/2000/svg" viewBox="0 0 35 35"><defs><style>.cls-1,.cls-2{fill:#666;}.cls-2{stroke:#666;stroke-miterlimit:10;stroke-width:0.5px;}</style></defs><path class="cls-1" d="M16.79,30c-.34,0-.66,0-1-.08a.38.38,0,0,0-.43.31.41.41,0,0,0,.32.43c.35.05.68.07,1,.09h0a.35.35,0,0,0,.37-.34A.37.37,0,0,0,16.79,30Zm2.89-.16c-.32.06-.64.09-1,.13a.36.36,0,0,0-.33.4.36.36,0,0,0,.37.35h0c.34-.05.67-.08,1-.14a.39.39,0,0,0,.3-.44A.36.36,0,0,0,19.68,29.8Zm10.4-9.69a.38.38,0,0,0-.45.27v0a.73.73,0,0,1,.23.09,1,1,0,0,1,.24.1,1.45,1.45,0,0,1,.22.09.39.39,0,0,0,.05-.14A.37.37,0,0,0,30.08,20.11ZM5,18a.38.38,0,0,0-.39-.35h0a.36.36,0,0,0-.35.39,8.59,8.59,0,0,0,.08,1,.36.36,0,0,0,.37.33h0A.37.37,0,0,0,5.11,19C5.07,18.68,5.05,18.35,5,18Zm25.31-.91a.41.41,0,0,0-.39.4c0,.32,0,.64,0,1a.36.36,0,0,0,.33.4h0a.36.36,0,0,0,.37-.34c0-.35,0-.68,0-1v-.06A.34.34,0,0,0,30.35,17.11ZM5,14.69a.39.39,0,0,0-.44.31,8.18,8.18,0,0,0-.15,1,.39.39,0,0,0,.33.42h0a.39.39,0,0,0,.38-.33,7.81,7.81,0,0,1,.14-1A.39.39,0,0,0,5,14.69Zm25.41-.29a.47.47,0,0,0-.05-.1,1,1,0,0,1-.23.1l-.21.1c-.08,0-.17.06-.24.07h0c.06.31.13.63.18,1a.38.38,0,0,0,.38.31h.06a.4.4,0,0,0,.31-.43C30.5,15.07,30.44,14.74,30.36,14.4ZM14.65,4.6a4.15,4.15,0,0,0-.77.2A1.55,1.55,0,0,1,14,5a2.4,2.4,0,0,1,.11.23l.08.24.62-.17a.37.37,0,1,0-.16-.72Zm6.1.09c-.33-.08-.67-.15-1-.21a.38.38,0,0,0-.44.31.36.36,0,0,0,.31.42c.32.06.63.14.94.21h.09a.47.47,0,0,0,.21-.06A1.69,1.69,0,0,1,21,5,.38.38,0,0,0,20.75,4.69ZM17.7,4.3h-.2c-.27,0-.55,0-.81,0a.36.36,0,0,0-.36.38.39.39,0,0,0,.37.37s0,0,0,0l.77,0h.19a.39.39,0,0,0,.38-.38A.35.35,0,0,0,17.7,4.3Z"/><path class="cls-1" d="M16.8,29.71c-.32,0-.63,0-.92-.08a.54.54,0,0,0-.46.11.61.61,0,0,0-.28.44.65.65,0,0,0,.54.69c.32,0,.67.07,1.08.09a.6.6,0,0,0,.62-.58A.63.63,0,0,0,16.8,29.71Zm-.05.75a9.52,9.52,0,0,1-1-.09c-.06,0-.12-.08-.11-.13s0-.07,0-.11h.11c.31,0,.64.06,1,.08.08,0,.11.08.11.15S16.83,30.46,16.75,30.46Zm2.88-.91h0c-.28.06-.58.09-.94.13a.61.61,0,0,0-.56.68.63.63,0,0,0,.68.57c.34-.05.69-.08,1.05-.14a.66.66,0,0,0,.5-.73A.63.63,0,0,0,19.63,29.55Zm-1,.77a.12.12,0,0,1,.11-.14c.36,0,.68-.08,1-.13a.11.11,0,0,1,.15.09c0,.07-.05.13-.1.15-.33.06-.66.09-1,.14A.12.12,0,0,1,18.63,30.32ZM30.54,20.15a.61.61,0,0,0-.4-.28.6.6,0,0,0-.71.39l-.05.09a1.17,1.17,0,0,1,.25.07.73.73,0,0,1,.23.09l0-.07a.1.1,0,0,1,.14-.09.11.11,0,0,1,.09.07s0,0,0,.09a.44.44,0,0,1,0,.1,1.45,1.45,0,0,1,.22.09,2.53,2.53,0,0,1,.23.12v0a1.67,1.67,0,0,0,.05-.18A.64.64,0,0,0,30.54,20.15ZM5.29,18a.64.64,0,0,0-.66-.59.67.67,0,0,0-.44.2.58.58,0,0,0-.15.45,8.56,8.56,0,0,0,.08,1,.6.6,0,0,0,.62.54H4.8a.62.62,0,0,0,.43-.23A.64.64,0,0,0,5.36,19C5.32,18.65,5.3,18.33,5.29,18Zm-.67,1a8,8,0,0,1-.08-1c0-.05,0-.07,0-.1l.09,0a.13.13,0,0,1,.14.12c0,.33,0,.65.07,1a.1.1,0,0,1,0,.1.11.11,0,0,1-.09,0A.11.11,0,0,1,4.62,19.05Zm25.73-2.19a.65.65,0,0,0-.64.65c0,.31,0,.63,0,.94a.62.62,0,0,0,.62.68.63.63,0,0,0,.62-.57c0-.31,0-.64,0-1.11A.6.6,0,0,0,30.35,16.86Zm.08,1.66c0,.08-.06.11-.13.11a.12.12,0,0,1-.11-.13c0-.33,0-.67,0-1a.17.17,0,0,1,.14-.15s.11,0,.11.15C30.46,17.89,30.45,18.21,30.43,18.52Zm-25.31-4-.12,0a.61.61,0,0,0-.49.11.63.63,0,0,0-.24.38A8.1,8.1,0,0,0,4.11,16a.63.63,0,0,0,.53.69h.09a.64.64,0,0,0,.63-.56,6.78,6.78,0,0,1,.14-.93v-.12A.6.6,0,0,0,5.12,14.49Zm-.39,1.69A.12.12,0,0,1,4.61,16a6.08,6.08,0,0,1,.15-1s0-.06,0-.08l.07,0h0a.13.13,0,0,1,.1.14c-.06.37-.12.69-.14,1A.13.13,0,0,1,4.73,16.18ZM30.6,14.35s0-.09-.06-.16l-.23.11a1,1,0,0,1-.23.1,0,0,0,0,1,0,0l0,0c.07.33.13.67.19,1a.17.17,0,0,1-.12.15c-.06,0-.13,0-.13-.1,0-.32-.12-.65-.18-.92v-.07h0c-.08,0-.17.06-.24.07a.78.78,0,0,1-.25.07c.06.31.13.62.18.93a.64.64,0,0,0,.63.53h.07l0,0a.63.63,0,0,0,.51-.7C30.75,15,30.68,14.69,30.6,14.35ZM15.35,4.82a.64.64,0,0,0-.62-.49.23.23,0,0,0-.12,0,4,4,0,0,0-.79.21h-.06a1.27,1.27,0,0,1,.12.23A1.55,1.55,0,0,1,14,5c.24-.08.48-.14.7-.19a.15.15,0,0,1,.16.1.12.12,0,0,1-.11.15l-.6.16h0l.08.24a1,1,0,0,1,.08.24l.6-.16A.63.63,0,0,0,15.35,4.82Zm5.46-.37c-.31-.08-.64-.15-1-.21a.58.58,0,0,0-.48.09.75.75,0,0,0-.26.41.6.6,0,0,0,.12.46.53.53,0,0,0,.38.26c.32.06.64.12.93.19a.39.39,0,0,0,.16,0,.13.13,0,0,0,.1,0,1.08,1.08,0,0,1,.11-.28A1.69,1.69,0,0,1,21,5c0-.11.1-.19.16-.3A.72.72,0,0,0,20.81,4.45Zm0,.65s0,0-.05.05a.09.09,0,0,1-.08,0l-1-.22-.07,0a.2.2,0,0,1,0-.11.07.07,0,0,1,.06-.07.06.06,0,0,1,.06,0s0,0,0,0c.36.06.68.13,1,.21h0a.08.08,0,0,1,.07.07V5.1Zm-2.59-.86a.66.66,0,0,0-.46-.19H17.5c-.29,0-.56,0-.82,0a.58.58,0,0,0-.45.22.56.56,0,0,0-.15.42.64.64,0,0,0,.62.61h1a.7.7,0,0,0,.45-.18.65.65,0,0,0,.19-.44A.62.62,0,0,0,18.17,4.24Zm-.47.56h-.2l-.79,0h0a.13.13,0,0,1-.09-.13.09.09,0,0,1,0-.07s0,0,.09,0c.26,0,.54,0,.79,0h.21a.15.15,0,0,1,.1,0,.2.2,0,0,1,0,.09A.15.15,0,0,1,17.7,4.8Z"/><path class="cls-2" d="M9.76,7.56a2.5,2.5,0,0,0-.36-.24l.1-.14A2.14,2.14,0,0,0,7.64,4,2.13,2.13,0,0,0,5.52,6.14a2,2,0,0,0,.36,1.18,3.78,3.78,0,0,0-2,3.31c0,.07,0,.14,0,.23v.27h7.14l.3,0v-.48A3.69,3.69,0,0,0,9.76,7.56ZM7.64,4.62A1.53,1.53,0,0,1,9.18,6.14a1.58,1.58,0,0,1-.32,1,1.75,1.75,0,0,1-.59.45A1.57,1.57,0,0,1,7,7.55a1.82,1.82,0,0,1-.58-.45,1.65,1.65,0,0,1-.32-1A1.53,1.53,0,0,1,7.64,4.62ZM4.5,10.55A3.11,3.11,0,0,1,6.31,7.79a2.11,2.11,0,0,0,1.33.47,1.85,1.85,0,0,0,.63-.09A2,2,0,0,0,9,7.79L9.4,8a3.16,3.16,0,0,1,1.4,2.53Z"/><path class="cls-1" d="M14.27,5.73a1,1,0,0,0-.08-.24l-.08-.24A2.4,2.4,0,0,0,14,5a1.55,1.55,0,0,0-.12-.22,1.27,1.27,0,0,0-.12-.23,7,7,0,1,0-8.64,9.92A6.76,6.76,0,0,0,7.64,15a7,7,0,0,0,7-7A6.65,6.65,0,0,0,14.27,5.73ZM7.64,14a5.66,5.66,0,0,1-2.24-.44h0l-.24-.1a6,6,0,1,1,2.5.54Z"/><path class="cls-2" d="M29.12,7.32a2,2,0,0,0,.36-1.18,2.12,2.12,0,1,0-4.24,0,2,2,0,0,0,.14.74,1.3,1.3,0,0,0,.22.44,2.67,2.67,0,0,0-.48.32,3.69,3.69,0,0,0-1.5,3,1.93,1.93,0,0,0,0,.23v.27h7.16l.28,0v-.29c0-.06,0-.13,0-.19A3.78,3.78,0,0,0,29.12,7.32Zm-1.77-2.7a1.53,1.53,0,0,1,1.53,1.52,1.65,1.65,0,0,1-.32,1,1.82,1.82,0,0,1-.58.45,1.65,1.65,0,0,1-.63.13,1.6,1.6,0,0,1-.62-.13,1.75,1.75,0,0,1-.59-.45,1.58,1.58,0,0,1-.32-1A1.53,1.53,0,0,1,27.35,4.62ZM24.2,10.55A3.16,3.16,0,0,1,25.6,8l.4-.23.25.16a2,2,0,0,0,1.1.31,2.12,2.12,0,0,0,1.34-.47,3.11,3.11,0,0,1,1.81,2.76Z"/><path class="cls-1" d="M27.36,1A7,7,0,0,0,21.17,4.7c-.06.11-.11.19-.16.3a1.69,1.69,0,0,0-.15.37,1.08,1.08,0,0,0-.11.28A6.84,6.84,0,0,0,20.35,8a7,7,0,0,0,7,7,5.9,5.9,0,0,0,2-.32.78.78,0,0,0,.25-.07c.07,0,.16-.05.24-.07l.21-.1a1,1,0,0,0,.23-.1l.23-.11A7,7,0,0,0,27.36,1Zm0,13a6,6,0,1,1,6-6A6,6,0,0,1,27.36,14Z"/><path class="cls-2" d="M11.31,29a4,4,0,0,0-.25-.76A3.79,3.79,0,0,0,9.4,26.4a2,2,0,0,0,.36-1.17,2.12,2.12,0,0,0-2.12-2.12,2.15,2.15,0,0,0-1.14.33,2.72,2.72,0,0,0-.56.51,2.25,2.25,0,0,0-.42,1.28,2,2,0,0,0,.36,1.17,3.79,3.79,0,0,0-2,3.3,1.75,1.75,0,0,0,0,.24v.27h7.14l.3,0V29.7A3.67,3.67,0,0,0,11.31,29Zm-5-4.41a1.4,1.4,0,0,1,.51-.6,1.56,1.56,0,0,1,.83-.25,1.53,1.53,0,0,1,1.54,1.54,1.58,1.58,0,0,1-.32.95,1.37,1.37,0,0,1-.17.17,1.4,1.4,0,0,1-.42.28A.77.77,0,0,1,8,26.7a.91.91,0,0,1-.36.06A1.8,1.8,0,0,1,7,26.63a1.82,1.82,0,0,1-.58-.45,1.64,1.64,0,0,1-.32-.95A1.37,1.37,0,0,1,6.3,24.54ZM4.5,29.63a3.12,3.12,0,0,1,1.81-2.76,2.06,2.06,0,0,0,1.33.48,2.1,2.1,0,0,0,.84-.17A1.71,1.71,0,0,0,9,26.87s.05,0,.06,0a2.9,2.9,0,0,1,1.06.86,2.87,2.87,0,0,1,.55,1.07,3,3,0,0,1,.13.8Z"/><path class="cls-1" d="M7.64,20A7,7,0,1,0,13.9,30.19a4,4,0,0,0,.25-.56,6.74,6.74,0,0,0,.5-2.58A7,7,0,0,0,7.64,20Zm5.59,9.2a5.24,5.24,0,0,1-.31.68,6,6,0,1,1-7.29-8.53,5.63,5.63,0,0,1,2-.35,6,6,0,0,1,6,6A5.93,5.93,0,0,1,13.23,29.24Z"/><path class="cls-2" d="M29.12,26.4a2,2,0,0,0,.36-1.17,2.22,2.22,0,0,0-.43-1.29,2.44,2.44,0,0,0-.57-.5,2.11,2.11,0,0,0-3.24,1.79,2,2,0,0,0,.36,1.17,3.77,3.77,0,0,0-2,3.3,1.85,1.85,0,0,0,0,.24v.27h7.16l.28,0V29.9c0-.07,0-.13,0-.2A3.79,3.79,0,0,0,29.12,26.4Zm-1.77-2.71a1.65,1.65,0,0,1,.84.25,1.63,1.63,0,0,1,.5.54,1.52,1.52,0,0,1,.19.75,1.64,1.64,0,0,1-.32.95,1.82,1.82,0,0,1-.58.45,1.86,1.86,0,0,1-.63.13A1,1,0,0,1,27,26.7a.77.77,0,0,1-.27-.07,1.25,1.25,0,0,1-.41-.26,1.07,1.07,0,0,1-.18-.19,1.58,1.58,0,0,1-.32-.95A1.53,1.53,0,0,1,27.35,23.69ZM24.2,29.63a2.79,2.79,0,0,1,.16-.87,3,3,0,0,1,.82-1.32,2.75,2.75,0,0,1,.82-.57,2.14,2.14,0,0,0,1.35.48,2.07,2.07,0,0,0,1.34-.48,3.12,3.12,0,0,1,1.81,2.76Z"/><path class="cls-1" d="M30.55,20.82a2.53,2.53,0,0,0-.23-.12,1.45,1.45,0,0,0-.22-.09,1,1,0,0,0-.24-.1.73.73,0,0,0-.23-.09,1.17,1.17,0,0,0-.25-.07,6.15,6.15,0,0,0-2-.31,7,7,0,1,0,3.19.78ZM27.36,33.05a6,6,0,0,1-5.29-3.13,7,7,0,0,1-.31-.68,6.13,6.13,0,0,1-.41-2.19,6,6,0,0,1,6-6,5.51,5.51,0,0,1,1.77.28,1.2,1.2,0,0,1,.24.06,3.83,3.83,0,0,1,.65.3,1.24,1.24,0,0,1,.23.12,6,6,0,0,1-2.89,11.25Z"/></svg>