<?xml version="1.0" encoding="UTF-8"?>
<svg width="35px" height="35px" viewBox="0 0 35 35" version="1.1" xmlns="http://www.w3.org/2000/svg" xmlns:xlink="http://www.w3.org/1999/xlink">
    <title>Icono/Conducir cansado/Ejercicio@1,5x</title>
    <g id="Icono/Conducir-cansado/Ejercicio" stroke="none" stroke-width="1" fill="none" fill-rule="evenodd" stroke-linecap="round" stroke-linejoin="round">
        <g id="Group-33" transform="translate(2.000000, 6.000000)" stroke="#666666" stroke-width="1.3">
            <path d="M1.4764,21.3529 C8.2304,18.0709 26.8634,9.9149 30.0354,8.5119 C30.2994,8.3959 30.6084,8.5039 30.7424,8.7609 L31.8024,10.8069 C31.9534,11.0969 31.8184,11.4529 31.5124,11.5689 C27.9874,12.9159 8.8544,20.1419 2.0964,22.5939 C1.8784,22.6729 1.4454,22.8209 1.1974,22.3649 C0.8924,21.8019 1.2404,21.4679 1.4764,21.3529 Z" id="Stroke-1"></path>
            <path d="M16.5721,4.3323 C16.5721,4.3323 10.0621,9.8393 5.9111,13.0143 C4.6471,13.9803 3.6021,14.7313 3.0261,15.0453 C0.5561,16.3893 -0.0369,19.0903 1.4761,21.3533 L30.2631,8.3633 C30.2631,8.3633 28.2291,2.6253 27.8301,1.7543 C27.4301,0.8823 26.3041,0.4103 25.5791,0.7733 C25.5791,0.7733 25.0631,4.8893 22.2011,5.4583 C21.0741,5.6823 19.8511,5.3473 19.3111,4.8503 C17.6481,3.3193 16.5721,4.3323 16.5721,4.3323 Z" id="Stroke-3"></path>
            <path d="M5.9628,12.9505 C5.9628,12.9505 6.9478,15.5655 9.3398,17.7725" id="Stroke-5"></path>
            <path d="M19.3749,4.8812 C19.3749,4.8812 12.6799,11.4272 7.2309,15.2782" id="Stroke-7"></path>
            <path d="M25.2616,2.2874 C25.2616,2.2874 25.9596,7.2754 25.0616,10.6674" id="Stroke-9"></path>
            <path d="M8.3358,12.4144 L8.2458,12.4924 C8.0898,12.6294 7.8528,12.6134 7.7158,12.4574 L6.8548,11.4704 C6.7178,11.3134 6.7328,11.0764 6.8898,10.9394 L6.9798,10.8614 C7.1358,10.7254 7.3728,10.7414 7.5098,10.8974 L8.3718,11.8844 C8.5088,12.0404 8.4918,12.2774 8.3358,12.4144 Z" id="Stroke-11"></path>
            <path d="M10.3085,10.8118 L10.2195,10.8898 C10.0625,11.0268 9.8255,11.0098 9.6885,10.8538 L8.8275,9.8678 C8.6905,9.7108 8.7055,9.4738 8.8635,9.3368 L8.9525,9.2588 C9.1085,9.1228 9.3465,9.1378 9.4825,9.2938 L10.3445,10.2818 C10.4815,10.4378 10.4645,10.6748 10.3085,10.8118 Z" id="Stroke-13"></path>
            <path d="M12.3026,9.1263 L12.2126,9.2043 C12.0566,9.3413 11.8196,9.3253 11.6826,9.1693 L10.8206,8.1823 C10.6836,8.0253 10.6996,7.7883 10.8566,7.6513 L10.9466,7.5733 C11.1026,7.4373 11.3396,7.4533 11.4766,7.6093 L12.3376,8.5963 C12.4746,8.7523 12.4586,8.9893 12.3026,9.1263 Z" id="Stroke-15"></path>
            <path d="M14.3163,7.4622 L14.2263,7.5402 C14.0703,7.6772 13.8333,7.6602 13.6963,7.5042 L12.8343,6.5182 C12.6983,6.3612 12.7133,6.1242 12.8703,5.9872 L12.9603,5.9092 C13.1163,5.7732 13.3533,5.7882 13.4903,5.9442 L14.3523,6.9312 C14.4883,7.0882 14.4723,7.3252 14.3163,7.4622 Z" id="Stroke-17"></path>
            <line x1="11.1385" y1="12.222" x2="14.0915" y2="15.589" id="Stroke-19"></line>
            <line x1="12.4081" y1="11.2181" x2="15.5971" y2="14.9981" id="Stroke-21"></line>
            <line x1="13.5302" y1="10.2142" x2="16.9982" y2="14.2352" id="Stroke-23"></line>
            <line x1="14.8007" y1="9.2103" x2="18.5487" y2="13.5853" id="Stroke-25"></line>
            <line x1="15.8573" y1="8.1409" x2="19.9423" y2="12.9999" id="Stroke-27"></line>
            <line x1="17.1268" y1="7.137" x2="21.5238" y2="12.303" id="Stroke-29"></line>
            <path d="M15.4706,5.2542 C15.7876,4.2842 16.4056,2.3812 16.5806,1.8252 C16.8196,1.0672 19.9656,1.4202 19.7806,2.3632 C19.6926,2.7692 19.1106,4.6632 19.1106,4.6632 L19.1016,4.6632" id="Stroke-31"></path>
        </g>
    </g>
</svg>