<svg xmlns="http://www.w3.org/2000/svg" width="25" height="25" viewBox="0 0 25 25">
    <g fill="none" fill-rule="evenodd">
        <path fill="#E6E6E6" fill-rule="nonzero" d="M20.467.038H2.532c-.559 0-1.011.453-1.011 1.012v3.365h19.958V1.05c0-.559-.453-1.012-1.012-1.012zM6.656 2.063a.485.485 0 110-.97.485.485 0 010 .97zm9.815 0a.485.485 0 110-.97.485.485 0 010 .97z" transform="translate(1 1)"/>
        <path fill="#3A5BBC" d="M22.978 4.65l-1.531 7.983.625 8.301a1.05 1.05 0 01-1.047 1.13H1.975a1.05 1.05 0 01-1.048-1.13l.626-8.3L.023 4.65a1.218 1.218 0 011.195-1.447h20.563c.765 0 1.34.697 1.197 1.447z" transform="translate(1 1)"/>
        <path fill="#518EF8" d="M21.025 22.064H1.975a1.05 1.05 0 01-1.048-1.13l.626-8.3h19.894l.625 8.3a1.05 1.05 0 01-1.047 1.13z" transform="translate(1 1)"/>
        <g fill="#FFF">
            <path d="M5.857 3.228C5.857 1.67 4.553.402 2.95.402S.043 1.67.043 3.228h.97c0-1.024.869-1.857 1.937-1.857s1.938.833 1.938 1.857-.87 1.857-1.938 1.857h-.904v.969h.904c1.068 0 1.938.833 1.938 1.857s-.87 1.857-1.938 1.857-1.938-.833-1.938-1.857H.043c0 1.558 1.304 2.826 2.907 2.826S5.857 9.469 5.857 7.91c0-.973-.51-1.833-1.281-2.342a2.805 2.805 0 001.28-2.341zM7.74 2.053L8.237 2.885 10.152 1.74 10.152 10.252 11.121 10.252 11.121.033z" transform="translate(1 1) translate(5.256 7.322)"/>
        </g>
    </g>
</svg>
