<svg id="Capa_1" data-name="Capa 1" xmlns="http://www.w3.org/2000/svg" viewBox="0 0 35 35"><defs><style>.cls-1{fill:#666;}</style></defs><path class="cls-1" d="M11.38,13H22.69l.58-.06,0-.57v-.15c0-.05,0-.11,0-.17a6,6,0,0,0-3-5.19,3.51,3.51,0,0,0,.5-1.8,3.46,3.46,0,0,0-6.92,0,3.41,3.41,0,0,0,.5,1.8,6,6,0,0,0-3,5.19c0,.13,0,.23,0,.37Zm7.7-6.55a2.15,2.15,0,0,1-.81.64l0,0a2.21,2.21,0,0,1-1.83,0,2.06,2.06,0,0,1-.84-.65,2.27,2.27,0,0,1-.48-1.39,2.24,2.24,0,1,1,4,1.39Zm.36,1.35a4.72,4.72,0,0,1,2.63,4h-9.5a4.7,4.7,0,0,1,2.63-4,3.48,3.48,0,0,0,4.24,0Z"/><path class="cls-1" d="M12.68,21.15l0-.58v-.14a1,1,0,0,0,0-.17,6,6,0,0,0-3-5.2,3.38,3.38,0,0,0,.5-1.79,3.46,3.46,0,1,0-6.42,1.79,6,6,0,0,0-3,5.2,3,3,0,0,0,0,.32l0,.63H12.11ZM8.5,14.65a2.29,2.29,0,0,1-.82.65h0a2.21,2.21,0,0,1-1.83,0A2.12,2.12,0,0,1,5,14.66a2.27,2.27,0,0,1-.48-1.39,2.24,2.24,0,0,1,4.48,0A2.28,2.28,0,0,1,8.5,14.65ZM6.73,16.73A3.39,3.39,0,0,0,8.85,16a4.73,4.73,0,0,1,2.63,4H2a4.75,4.75,0,0,1,2.63-4A3.39,3.39,0,0,0,6.73,16.73Z"/><path class="cls-1" d="M13.26,27.22a3.41,3.41,0,0,0,.5-1.8,3.46,3.46,0,0,0-6.92,0,3.41,3.41,0,0,0,.5,1.8,6,6,0,0,0-3,5.19c0,.12,0,.22,0,.33l0,.62H15.67l.58-.06,0-.58v-.14s0-.11,0-.17A6,6,0,0,0,13.26,27.22Zm-1.2-.41a2.35,2.35,0,0,1-.81.64h0a2.17,2.17,0,0,1-1.83,0,2.06,2.06,0,0,1-.84-.65,2.27,2.27,0,0,1-.48-1.39,2.24,2.24,0,0,1,4.48,0A2.27,2.27,0,0,1,12.06,26.81ZM10.3,28.88a3.39,3.39,0,0,0,2.12-.73,4.73,4.73,0,0,1,2.63,4H5.55a4.73,4.73,0,0,1,2.63-4A3.39,3.39,0,0,0,10.3,28.88Z"/><path class="cls-1" d="M28.14,27.22a3.41,3.41,0,0,0,.5-1.8,3.46,3.46,0,0,0-6.91,0,3.41,3.41,0,0,0,.5,1.8,6,6,0,0,0-3,5.19c0,.12,0,.22,0,.33l0,.62H30.56l.58-.06,0-.58s0-.09,0-.14v-.17A6,6,0,0,0,28.14,27.22ZM27,26.81a2.29,2.29,0,0,1-.82.64h0a2.15,2.15,0,0,1-1.82,0,2.09,2.09,0,0,1-.85-.65A2.33,2.33,0,0,1,23,25.42a2.24,2.24,0,0,1,4.47,0A2.33,2.33,0,0,1,27,26.81Zm-1.77,2.07a3.44,3.44,0,0,0,2.13-.73,4.75,4.75,0,0,1,2.63,4H20.43a4.75,4.75,0,0,1,2.63-4A3.43,3.43,0,0,0,25.18,28.88Z"/><path class="cls-1" d="M31.23,15.06a3.46,3.46,0,1,0-6.42-1.79,3.38,3.38,0,0,0,.5,1.79,6,6,0,0,0-3,5.2c0,.12,0,.23,0,.36l0,.59H33.64l.58-.06,0-.58v-.14c0-.06,0-.11,0-.17A6,6,0,0,0,31.23,15.06Zm-3-4a2.25,2.25,0,0,1,2.25,2.24A2.23,2.23,0,0,1,30,14.65a2.26,2.26,0,0,1-.81.65h0a2.21,2.21,0,0,1-1.83,0,2.06,2.06,0,0,1-.84-.65A2.27,2.27,0,0,1,26,13.27,2.24,2.24,0,0,1,28.26,11Zm2.13,5A4.75,4.75,0,0,1,33,20h-9.5a4.73,4.73,0,0,1,2.63-4,3.44,3.44,0,0,0,4.24,0Z"/><path class="cls-1" d="M21.16,18.76a3.57,3.57,0,1,0-3.57,3.56A3.57,3.57,0,0,0,21.16,18.76Zm-3.57,2.46a2.46,2.46,0,1,1,2.46-2.46A2.46,2.46,0,0,1,17.59,21.22Z"/></svg>