<svg xmlns="http://www.w3.org/2000/svg" width="35" height="35" viewBox="0 0 35 35">
    <g fill="none" fill-rule="evenodd">
        <path fill="#FEFEFE" d="M28.957 19.653H3.156c-.79 0-1.462-.576-1.582-1.356l-.997-6.49c-.149-.97.601-1.844 1.581-1.844h27.796c.98 0 1.73.874 1.582 1.844l-.997 6.49c-.12.78-.791 1.356-1.582 1.356" transform="translate(2 6)"/>
        <path stroke="#666" stroke-width="1.5" d="M28.957 19.653H3.156c-.79 0-1.462-.576-1.582-1.356l-.997-6.49c-.149-.97.601-1.844 1.581-1.844h27.796c.98 0 1.73.874 1.582 1.844l-.997 6.49c-.12.78-.791 1.356-1.582 1.356z" transform="translate(2 6)"/>
        <path stroke="#666" stroke-width="1.5" d="M1.925 10.248l2.037-6.695C4.504 1.773 6.133.558 7.978.558h16.157c1.844 0 3.473 1.215 4.015 2.995l2.038 6.695M7.31 14.847c0 .995-.784 1.8-1.752 1.8-.966 0-1.75-.805-1.75-1.8s.784-1.8 1.75-1.8c.968 0 1.752.805 1.752 1.8zM28.305 14.847c0 .995-.784 1.8-1.751 1.8-.967 0-1.752-.805-1.752-1.8s.785-1.8 1.752-1.8 1.751.805 1.751 1.8z" transform="translate(2 6)"/>
        <path stroke="#666" stroke-linecap="round" stroke-width="1.5" d="M11.58 16.395h8.953M11.58 13.902h8.953M27.28 9.769c-.255-1.867-1.852-3.307-3.79-3.307-1.937 0-3.534 1.44-3.789 3.307M7.554 19.938v2.015c0 .701-.57 1.27-1.271 1.27H4.62c-.701 0-1.27-.569-1.27-1.27v-2.015M28.763 19.938v2.015c0 .701-.569 1.27-1.27 1.27h-1.664c-.701 0-1.27-.569-1.27-1.27v-2.015" transform="translate(2 6)"/>
    </g>
</svg>
