<svg xmlns="http://www.w3.org/2000/svg" width="35" height="35" viewBox="0 0 35 35">
    <g fill="none" fill-rule="evenodd">
        <path fill="#FEFEFE" d="M31.18 15.954c0 8.41-6.817 15.226-15.226 15.226-8.41 0-15.226-6.817-15.226-15.226C.728 7.544 7.545.728 15.954.728S31.18 7.545 31.18 15.954" transform="translate(2 2)"/>
        <path stroke="#666" stroke-width="1.5" d="M31.18 15.954c0 8.41-6.817 15.226-15.226 15.226-8.41 0-15.226-6.817-15.226-15.226C.728 7.544 7.545.728 15.954.728S31.18 7.545 31.18 15.954z" transform="translate(2 2)"/>
        <path fill="#FEFEFE" d="M27.174 15.954c0 6.196-5.024 11.22-11.22 11.22-6.197 0-11.22-5.024-11.22-11.22 0-6.197 5.023-11.22 11.22-11.22 6.196 0 11.22 5.023 11.22 11.22" transform="translate(2 2)"/>
        <path stroke="#666" stroke-width="1.5" d="M27.174 15.954c0 6.196-5.024 11.22-11.22 11.22-6.197 0-11.22-5.024-11.22-11.22 0-6.197 5.023-11.22 11.22-11.22 6.196 0 11.22 5.023 11.22 11.22z" transform="translate(2 2)"/>
        <g>
            <path fill="#FEFEFE" d="M.088.593h21.54" transform="translate(2 2) translate(4.848 12.513)"/>
            <path stroke="#666" stroke-width="1.5" d="M.088.593h21.54" transform="translate(2 2) translate(4.848 12.513)"/>
        </g>
        <path stroke="#666" stroke-width="1.5" d="M4.813 17.708l4.393.118c2.653.072 4.767 2.244 4.767 4.897v4.124M26.58 16.708l-4.874.13c-2.942.08-5.287 2.49-5.287 5.434v4.575" transform="translate(2 2)"/>
    </g>
</svg>
