<svg xmlns="http://www.w3.org/2000/svg" width="35" height="35" viewBox="0 0 35 35">
    <g fill="none" fill-rule="evenodd" stroke="#666" stroke-linecap="round" stroke-linejoin="round" stroke-width="1.5">
        <path d="M21.894 19.864c-1.362 3.681-4.144 6.206-8.506 7.719-.02.007-.042.007-.063 0-4.361-1.513-7.144-4.038-8.504-7.719-1.19-3.219-1.123-6.75-1.064-9.866.013-.669.026-1.301.026-1.925 0-.053.042-.096.095-.096 3.917 0 6.908-1.133 9.412-3.568.018-.018.043-.028.067-.028.024 0 .048.01.067.028 2.503 2.435 5.494 3.568 9.412 3.568.053 0 .096.043.096.096 0 .611.012 1.237.025 1.9v.025c.06 3.115.127 6.647-1.063 9.866z" transform="translate(4 2)"/>
        <path d="M24.707 21.142c-1.81 4.895-5.51 8.252-11.309 10.263-.027.009-.056.01-.083-.001-5.8-2.01-9.498-5.366-11.307-10.262C.426 16.862.515 12.167.594 8.026c.018-.89.033-1.73.033-2.56 0-.07.058-.127.127-.127 5.209 0 9.185-1.508 12.513-4.744.026-.025.058-.037.09-.037.032 0 .064.012.089.037C16.775 3.83 20.75 5.339 25.96 5.339c.07 0 .127.057.127.128 0 .811.016 1.644.033 2.525v.033c.08 4.142.169 8.838-1.413 13.117z" transform="translate(4 2)"/>
        <path d="M8.872 16.841L11.895 19.864 19.553 12.205" transform="translate(4 2)"/>
    </g>
</svg>
