<svg xmlns="http://www.w3.org/2000/svg" width="35" height="35" viewBox="0 0 35 35">
    <g fill="none" fill-rule="evenodd" stroke="#666" stroke-width="1.5">
        <path d="M9.935 8.101c0 1.124-.912 2.036-2.036 2.036-1.125 0-2.037-.912-2.037-2.036S6.774 6.065 7.9 6.065c1.124 0 2.036.912 2.036 2.036zM11.577 15.208H4.22v-1.26c0-2.033 1.647-3.68 3.678-3.68 2.032 0 3.679 1.647 3.679 3.68v1.26z" transform="translate(2 7)"/>
        <path d="M29.69 20.763H2.273C1.3 20.763.511 19.973.511 19V2.273C.511 1.3 1.3.511 2.273.511H29.69c.974 0 1.763.789 1.763 1.762V19c0 .973-.789 1.763-1.763 1.763z" transform="translate(2 7)"/>
        <path stroke-linecap="round" d="M15.518 7.334h11.995M15.518 10.636h11.995M15.518 13.94h11.995" transform="translate(2 7)"/>
    </g>
</svg>
