<svg xmlns="http://www.w3.org/2000/svg" xmlns:xlink="http://www.w3.org/1999/xlink" width="25" height="25" viewBox="0 0 25 25">
    <defs>
        <path id="prefix__a" d="M0 0.218L22.957 0.218 22.957 15.873 0 15.873z"/>
        <path id="prefix__c" d="M0 0.043L22.957 0.043 22.957 7.345 0 7.345z"/>
    </defs>
    <g fill="none" fill-rule="evenodd">
        <g transform="translate(1 1) translate(0 7.407)">
            <mask id="prefix__b" fill="#fff">
                <use xlink:href="#prefix__a"/>
            </mask>
            <path fill="#F3F3F3" d="M0 11.986a3.899 3.899 0 003.887 3.887H19.07a3.899 3.899 0 003.888-3.887V.218H0v11.768z" mask="url(#prefix__b)"/>
        </g>
        <g transform="translate(1 1) translate(0 .28)">
            <mask id="prefix__d" fill="#fff">
                <use xlink:href="#prefix__c"/>
            </mask>
            <path fill="#E7554D" d="M19.07.043H3.886A3.899 3.899 0 000 3.931v3.414h22.957V3.93A3.899 3.899 0 0019.069.043" mask="url(#prefix__d)"/>
        </g>
        <path fill="#FFF" d="M8.773 2.304h.45v2.339c0 .928-.455 1.213-1.057 1.213-.166 0-.368-.036-.482-.083l.067-.368c.094.036.228.067.379.067.404 0 .643-.181.643-.866V2.304zM10.426 2.304v2.07c0 .782.348 1.114.814 1.114.519 0 .85-.343.85-1.115V2.304h.457v2.038c0 1.073-.565 1.514-1.323 1.514-.715 0-1.254-.41-1.254-1.494V2.304h.456zM13.328 2.304L13.78 2.304 13.78 5.42 15.273 5.42 15.273 5.799 13.328 5.799z" transform="translate(1 1)"/>
        <path fill="#5C5C5C" d="M10.801 19.784h-6.08v-.905l2.436-2.449c.742-.75 1.232-1.286 1.468-1.607.236-.32.413-.632.531-.936.118-.304.177-.63.177-.98 0-.494-.15-.886-.449-1.175-.3-.288-.715-.433-1.246-.433a3.13 3.13 0 00-1.092.19c-.343.126-.726.356-1.148.69l-.557-.715c.852-.709 1.78-1.063 2.784-1.063.869 0 1.55.222 2.044.667.493.445.74 1.043.74 1.794 0 .586-.165 1.166-.493 1.74-.33.573-.945 1.3-1.848 2.177l-2.025 1.98v.05h4.758v.975zM15.18 11.255c-.528 0-.941.127-1.24.38-.3.253-.45.59-.45 1.012 0 .388.125.721.374 1 .249.278.708.556 1.379.835.603-.253 1.03-.525 1.281-.817.251-.29.376-.63.376-1.018 0-.426-.153-.765-.458-1.016-.306-.25-.727-.376-1.262-.376m-1.987 6.194c0 .506.176.9.528 1.183.352.283.847.424 1.484.424.628 0 1.117-.148 1.468-.443.35-.295.525-.7.525-1.215 0-.409-.164-.772-.494-1.09-.329-.32-.902-.628-1.72-.928-.63.27-1.085.568-1.367.895a1.734 1.734 0 00-.424 1.174m2-7.048c.843 0 1.511.196 2.005.588.493.393.74.934.74 1.626 0 .456-.141.871-.424 1.247-.283.375-.734.717-1.354 1.025.751.358 1.285.734 1.601 1.129.316.394.475.85.475 1.37 0 .768-.269 1.38-.804 1.838-.536.458-1.27.686-2.202.686-.987 0-1.746-.216-2.278-.648-.531-.433-.797-1.045-.797-1.838 0-1.06.646-1.884 1.936-2.474-.582-.329-1-.684-1.253-1.066a2.268 2.268 0 01-.379-1.282c0-.67.248-1.205.743-1.603.496-.399 1.16-.598 1.99-.598" transform="translate(1 1)"/>
    </g>
</svg>
