<?xml version="1.0" encoding="UTF-8"?>
<svg width="35px" height="35px" viewBox="0 0 35 35" version="1.1" xmlns="http://www.w3.org/2000/svg" xmlns:xlink="http://www.w3.org/1999/xlink">
    <title>Icono/Conducir cansado/Leer@1,5x</title>
    <g id="Icono/Conducir-cansado/Leer" stroke="none" stroke-width="1" fill="none" fill-rule="evenodd" stroke-linecap="round" stroke-linejoin="round">
        <path d="M19.014,7.222 L30.331,7.222 L30.331,7.782 L30.331,7.886 L30.331,8.051 L30.331,23.884 L19.014,23.884 C18.404,23.884 17.853,24.218 17.558,24.73 L17.558,9.381 L17.558,8.859 L17.558,8.678 C17.558,8.666 17.558,8.656 17.561,8.645 C17.577,7.857 18.222,7.222 19.014,7.222 Z M4.307,7.782 L4.307,7.222 L15.767,7.222 C16.566,7.222 17.217,7.853 17.238,8.638 C17.24,8.651 17.24,8.664 17.24,8.678 L17.24,8.862 L17.24,9.381 L17.24,24.73 C16.945,24.218 16.387,23.884 15.767,23.884 L4.307,23.884 L4.307,8.051 L4.307,7.886 L4.307,7.782 Z M32.522,26.672 L19.225,26.672 C18.372,26.672 17.627,27.223 17.423,27.989 L17.374,27.989 C17.173,27.223 16.428,26.672 15.576,26.672 L2.277,26.672 L2.277,8.051 L4.245,8.051 L4.245,23.995 C4.245,24.055 4.296,24.106 4.356,24.106 L15.784,24.106 C16.474,24.106 17.074,24.595 17.211,25.27 C17.222,25.323 17.269,25.361 17.32,25.361 L17.351,25.361 C17.368,25.361 17.383,25.356 17.399,25.349 C17.414,25.356 17.43,25.361 17.448,25.361 L17.479,25.361 C17.532,25.361 17.577,25.323 17.587,25.27 C17.724,24.595 18.327,24.106 19.014,24.106 L30.442,24.106 C30.504,24.106 30.553,24.055 30.553,23.995 L30.553,8.051 L32.522,8.051 L32.522,26.672 Z M32.606,7.782 L30.553,7.782 L30.553,7.112 C30.553,7.049 30.504,7 30.442,7 L19.014,7 C18.244,7 17.594,7.523 17.399,8.231 C17.204,7.523 16.554,7 15.784,7 L4.356,7 C4.296,7 4.245,7.049 4.245,7.112 L4.245,7.782 L2.195,7.782 C2.086,7.782 2,7.866 2,7.967 L2,26.756 C2,26.856 2.088,26.942 2.195,26.942 L15.576,26.942 C16.322,26.942 16.972,27.433 17.12,28.111 C17.14,28.197 17.218,28.258 17.311,28.258 L17.346,28.258 C17.364,28.258 17.379,28.256 17.395,28.252 L17.402,28.256 L17.408,28.252 C17.423,28.256 17.439,28.258 17.454,28.258 L17.49,28.258 C17.58,28.258 17.66,28.197 17.678,28.111 C17.827,27.433 18.477,26.942 19.225,26.942 L32.606,26.942 C32.71,26.942 32.798,26.856 32.798,26.756 L32.798,7.967 C32.798,7.866 32.712,7.782 32.606,7.782 Z" id="Stroke-1" stroke="#666666"></path>
    </g>
</svg>