<svg xmlns="http://www.w3.org/2000/svg" xmlns:xlink="http://www.w3.org/1999/xlink" width="30" height="35" viewBox="0 0 30 35">
    <defs>
        <path id="d8sh20zyba" d="M0 0.121L26.761 0.121 26.761 34.843 0 34.843z"/>
        <path id="x7cdi0n2nc" d="M0 34.879L26.761 34.879 26.761 0.157 0 0.157z"/>
    </defs>
    <g fill="none" fill-rule="evenodd" transform="translate(2)">
        <path fill="#EB651A" d="M2.993 21.073c-1.7-2.24-2.596-4.9-2.596-7.702 0-4.06 1.976-7.924 5.286-10.336C7.916 1.409 10.591.549 13.42.549c1.371 0 2.74.206 4.068.613 3.884 1.189 7.044 4.313 8.247 8.153 1.291 4.124.577 8.407-1.96 11.75L13.382 34.242 2.993 21.073z"/>
        <g transform="translate(0 .036)">
            <mask id="lvdf6svlbb" fill="#fff">
                <use xlink:href="#d8sh20zyba"/>
            </mask>
            <path fill="#FEFEFE" d="M13.419.121c-2.914 0-5.67.886-7.97 2.562C2.035 5.169 0 9.15 0 13.336c0 2.886.924 5.629 2.671 7.93l.005.006.004.006L12.756 34.05l.626.793.626-.794 10.075-12.772.004-.006.005-.005c2.614-3.446 3.35-7.857 2.021-12.102-1.24-3.963-4.5-7.186-8.51-8.412-1.365-.418-2.773-.63-4.184-.63m0 .784c1.314 0 2.646.196 3.95.595 3.762 1.151 6.822 4.177 7.986 7.895 1.253 4.002.561 8.157-1.898 11.399L13.382 33.567 3.306 20.796C1.663 18.63.794 16.05.794 13.336.794 9.4 2.71 5.653 5.919 3.315 8.093 1.73 10.72.906 13.42.906" mask="url(#lvdf6svlbb)"/>
        </g>
        <path fill="#FEFEFE" d="M12.68 7.237v.308l-.002 1.168c0 .174 0 .174.183.174h1.022v2.07c-.052.002-.101.007-.15.007-.32 0-.641.002-.962-.001-.09-.002-.118.029-.118.117.002 1.476.003 2.951 0 4.427 0 .1.04.12.13.12.367-.004.733-.002 1.111-.002v2.29h-3.591v-.163c0-3.042 0-6.083-.002-9.125 0-.102.025-.16.122-.21.729-.38 1.453-.765 2.18-1.148.018-.01.04-.017.077-.032M14.52 12.58h.256c.692 0 1.383.002 2.075-.001.096 0 .14.027.18.118.276.63.56 1.258.842 1.885.018.04.04.08.075.15l.09-.205 1.584-3.769c.084-.2.162-.403.251-.6.018-.04.074-.09.113-.09.774-.006 1.547-.005 2.352-.005l-.279.682-2.146 5.138c-.274.656-.55 1.311-.82 1.968-.036.088-.08.123-.18.123-.678-.005-1.356-.004-2.034-.001-.081 0-.132-.015-.167-.1-.257-.629-.52-1.254-.782-1.881l-1.379-3.31c-.012-.028-.018-.059-.03-.101"/>
        <mask id="wu5a3mrbqd" fill="#fff">
            <use xlink:href="#x7cdi0n2nc"/>
        </mask>
        <path fill="#FEFEFE" d="M6.221 17.992L8.604 17.992 8.604 12.183 6.221 12.183zM8.57 10.292c.003.684-.558 1.245-1.24 1.24-.686-.005-1.239-.551-1.243-1.227-.004-.68.543-1.227 1.23-1.23.704-.005 1.249.525 1.252 1.217" mask="url(#wu5a3mrbqd)"/>
    </g>
</svg>
