<svg xmlns="http://www.w3.org/2000/svg" width="25" height="25" viewBox="0 0 25 25">
    <g fill="none" fill-rule="evenodd">
        <path fill="#1976D2" d="M24.219 4.737H13.28a.782.782 0 000 1.562h8.661l-4.8 3.733L13.7 7.843l-.837 1.319 3.906 2.484a.777.777 0 00.898-.042l5.77-4.489v10.122H13.281a.782.782 0 000 1.562H24.22c.431 0 .781-.35.781-.78v-12.5a.782.782 0 00-.781-.782z" transform="translate(0 1)"/>
        <path fill="#2196F3" d="M13.78.23a.768.768 0 00-.643-.167L.637 2.407A.779.779 0 000 3.174v17.188a.78.78 0 00.637.767l12.5 2.344a.778.778 0 00.925-.767V.83a.78.78 0 00-.282-.602z" transform="translate(0 1)"/>
        <path fill="#FAFAFA" fill-rule="nonzero" d="M7.031 17.237c-2.153 0-3.906-2.103-3.906-4.688 0-2.584 1.753-4.687 3.906-4.687 2.153 0 3.907 2.103 3.907 4.687 0 2.585-1.754 4.688-3.907 4.688zm0-7.813c-1.292 0-2.343 1.402-2.343 3.125 0 1.724 1.051 3.125 2.343 3.125s2.344-1.401 2.344-3.125c0-1.723-1.052-3.125-2.344-3.125z" transform="translate(0 1)"/>
    </g>
</svg>
