<svg id="Capa_1" data-name="Capa 1" xmlns="http://www.w3.org/2000/svg" viewBox="0 0 35 35"><defs><style>.cls-1{fill:#666;}</style></defs><path class="cls-1" d="M27.31,3.79A3.11,3.11,0,1,0,30.42,6.9,3.12,3.12,0,0,0,27.31,3.79Zm0,5.14a2,2,0,1,1,2-2A2,2,0,0,1,27.31,8.93Z"/><path class="cls-1" d="M29.8,10.67H27.65c-1.83,0-2.11,1.73-2.22,2.39h0l-.49,3.6H22.41V14.49a.54.54,0,0,0-.54-.54H13.13a.54.54,0,0,0-.54.54v2.18H10.06l-.49-3.6h0c-.11-.66-.39-2.39-2.21-2.39H5.2a.54.54,0,0,0-.54.53V19a3,3,0,0,0,3,3h5v8.28a.54.54,0,0,0,.54.54h8.74a.54.54,0,0,0,.54-.54V22h5a3,3,0,0,0,3-3V11.2A.54.54,0,0,0,29.8,10.67ZM12.59,20.89h-5A1.88,1.88,0,0,1,5.74,19V11.74H7.36c.59,0,.94.24,1.14,1.48l.56,4.06a.54.54,0,0,0,.53.46h3Zm8.71,8.86H13.6V15h7.7Zm8-10.74a1.89,1.89,0,0,1-1.89,1.88h-5V17.74h3a.53.53,0,0,0,.53-.46l.56-4.06c.2-1.24.56-1.48,1.15-1.48h1.62Z"/><path class="cls-1" d="M32.65,14.14a1.28,1.28,0,0,0-1.27,1.28V19.9a3,3,0,0,1-3,3H23.62a.54.54,0,1,0,0,1.08h2.7v6.18H25a.54.54,0,1,0,0,1.08h3.66a.54.54,0,1,0,0-1.08H27.4V24h1a4.06,4.06,0,0,0,4.05-4.05V15.42a.19.19,0,0,1,.19-.2.54.54,0,0,0,.54-.54A.54.54,0,0,0,32.65,14.14Z"/><path class="cls-1" d="M7.69,3.79A3.11,3.11,0,1,0,10.8,6.9,3.11,3.11,0,0,0,7.69,3.79Zm0,5.14a2,2,0,1,1,2-2A2,2,0,0,1,7.69,8.93Z"/><path class="cls-1" d="M11.38,22.87H6.59a3,3,0,0,1-3-3V15.42a1.28,1.28,0,0,0-1.27-1.28.54.54,0,0,0-.54.54.54.54,0,0,0,.54.54.19.19,0,0,1,.19.2V19.9A4.06,4.06,0,0,0,6.59,24h1v6.18H6.31a.54.54,0,0,0,0,1.08H10a.54.54,0,0,0,0-1.08H8.68V24h2.7a.54.54,0,0,0,0-1.08Z"/></svg>