        <svg id="Capa_1" style="width: 36px;height:36px;" data-name="Capa 1" xmlns="http://www.w3.org/2000/svg" viewBox="0 0 35 35"><defs><style>.cls-1{fill:#666;}</style></defs><path class="cls-1" d="M23.18,5.19a.64.64,0,0,0-.62-.5H12.46a.64.64,0,0,0-.62.5L6.22,29.53a.65.65,0,0,0,.62.78H28.18a.65.65,0,0,0,.62-.78ZM16.65,8.12,16.9,6h1l.37,2.15Zm-1.4,1a.27.27,0,0,0,.07.21.28.28,0,0,0,.21.1h4a.28.28,0,0,0,.21-.1.31.31,0,0,0,.06-.23L19.23,6h2.82L27.38,29H22.81l-.62-3.36a.28.28,0,0,0-.28-.23H12.82a.28.28,0,0,0-.28.24L12.12,29H7.64L13,6h2.65ZM13.69,26.71h7.39L21.51,29H13.4Z"/><path class="cls-1" d="M11,5.37v0s0,0,0,0a.22.22,0,0,0,0-.08l0-.06,0-.06s0,0-.05-.05l0,0-.07,0H9.6a.38.38,0,0,0-.35.26L1.9,29.57a.35.35,0,0,0,.06.31.34.34,0,0,0,.29.15H4.63a.31.31,0,0,0,.13,0l0,0,.08-.05,0,0a.16.16,0,0,0,0-.07l0,0,0,0L11,5.42Z"/><path class="cls-1" d="M33.1,29.57,25.75,5.23A.37.37,0,0,0,25.4,5H24.24l-.06,0-.05,0a.08.08,0,0,0-.05,0l0,.06s0,0,0,.06a.17.17,0,0,0,0,.07s0,0,0,0v.09l6,24.33v0l0,.05s0,.05,0,.06l0,0,.08,0,0,0a.31.31,0,0,0,.13,0h2.38a.38.38,0,0,0,.29-.15A.37.37,0,0,0,33.1,29.57Z"/><path class="cls-1" d="M13.35,23.43h8.31a.32.32,0,0,0,.22-.1.31.31,0,0,0,.06-.23L21.19,19a.27.27,0,0,0-.27-.23H13.87a.28.28,0,0,0-.28.24l-.51,4.15a.26.26,0,0,0,.27.31ZM20.09,20l.38,2.16h-6L14.75,20Z"/><path class="cls-1" d="M14.44,16.41h6.12a.27.27,0,0,0,.21-.09.29.29,0,0,0,.07-.23L20.18,12a.27.27,0,0,0-.27-.24H15a.26.26,0,0,0-.27.24l-.55,4.15a.29.29,0,0,0,.07.22A.27.27,0,0,0,14.44,16.41ZM19.06,13l.34,2.16H15.57L15.86,13Z"/></svg>
