<?xml version="1.0" encoding="UTF-8"?>
<svg width="35px" height="35px" viewBox="0 0 35 35" version="1.1" xmlns="http://www.w3.org/2000/svg" xmlns:xlink="http://www.w3.org/1999/xlink">
    <title>Icono/Conducir cansado/Sol@1,5x</title>
    <defs>
        <polygon id="path-1" points="0.792142105 0.0270789474 3.82642105 0.0270789474 3.82642105 1.38102632 0.792142105 1.38102632"></polygon>
        <polygon id="path-3" points="0 0.0270789474 3.03494211 0.0270789474 3.03494211 1.38102632 0 1.38102632"></polygon>
    </defs>
    <g id="Icono/Conducir-cansado/Sol" stroke="none" stroke-width="1" fill="none" fill-rule="evenodd">
        <g id="Group-21" transform="translate(0.000000, 2.000000)">
            <path d="M15.9031895,10.3426105 C15.9031895,13.5014526 13.3434,16.0623474 10.1834526,16.0623474 C7.02571579,16.0623474 4.46371579,13.5014526 4.46371579,10.3426105 C4.46371579,7.18487368 7.02571579,4.62287368 10.1834526,4.62287368 C13.3434,4.62287368 15.9031895,7.18487368 15.9031895,10.3426105 Z" id="Stroke-1" stroke="#666666" stroke-width="1.3" stroke-linecap="round" stroke-linejoin="round"></path>
            <path d="M10.5107211,3.03527368 L10.5107211,3.03527368 C10.1360368,3.03527368 9.83319474,2.73243158 9.83319474,2.35774737 L9.83319474,0.676642105 C9.83319474,0.303063158 10.1360368,0.000221052632 10.5107211,0.000221052632 C10.8843,0.000221052632 11.1871421,0.303063158 11.1871421,0.676642105 L11.1871421,2.35774737 C11.1871421,2.73243158 10.8843,3.03527368 10.5107211,3.03527368" id="Fill-3" fill="#666666"></path>
            <path d="M10.5107211,20.6504053 L10.5107211,20.6504053 C10.1360368,20.6504053 9.83319474,20.3475632 9.83319474,19.9739842 L9.83319474,18.2928789 C9.83319474,17.9181947 10.1360368,17.6164579 10.5107211,17.6164579 C10.8843,17.6164579 11.1871421,17.9181947 11.1871421,18.2928789 L11.1871421,19.9739842 C11.1871421,20.3475632 10.8843,20.6504053 10.5107211,20.6504053" id="Fill-5" fill="#666666"></path>
            <g id="Group-9" transform="translate(16.578947, 9.598105)">
                <mask id="mask-2" fill="white">
                    <use xlink:href="#path-1"></use>
                </mask>
                <g id="Clip-8"></g>
                <path d="M0.792142105,0.7035 L0.792142105,0.7035 C0.792142105,0.329921053 1.09498421,0.0270789474 1.46856316,0.0270789474 L3.14966842,0.0270789474 C3.52435263,0.0270789474 3.82719474,0.329921053 3.82719474,0.7035 C3.82719474,1.07818421 3.52435263,1.38102632 3.14966842,1.38102632 L1.46856316,1.38102632 C1.09498421,1.38102632 0.792142105,1.07818421 0.792142105,0.7035" id="Fill-7" fill="#666666" mask="url(#mask-2)"></path>
            </g>
            <g id="Group-12" transform="translate(0.000000, 9.598105)">
                <mask id="mask-4" fill="white">
                    <use xlink:href="#path-3"></use>
                </mask>
                <g id="Clip-11"></g>
                <path d="M-0.000110526316,0.7035 L-0.000110526316,0.7035 C-0.000110526316,0.329921053 0.302731579,0.0270789474 0.676310526,0.0270789474 L2.35852105,0.0270789474 C2.7321,0.0270789474 3.03494211,0.329921053 3.03494211,0.7035 C3.03494211,1.07818421 2.7321,1.38102632 2.35852105,1.38102632 L0.676310526,1.38102632 C0.302731579,1.38102632 -0.000110526316,1.07818421 -0.000110526316,0.7035" id="Fill-10" fill="#666666" mask="url(#mask-4)"></path>
            </g>
            <path d="M15.4887158,5.59661053 L15.4887158,5.59661053 C15.2245579,5.33245263 15.2245579,4.90361053 15.4887158,4.63945263 L16.6768737,3.45129474 C16.9410316,3.18603158 17.3698737,3.18603158 17.6340316,3.45129474 C17.8992947,3.71545263 17.8992947,4.14429474 17.6340316,4.40845263 L16.4458737,5.59661053 C16.1817158,5.86076842 15.7528737,5.86076842 15.4887158,5.59661053" id="Fill-13" fill="#666666"></path>
            <path d="M3.20559474,17.8797316 L3.20559474,17.8797316 C2.94143684,17.6155737 2.94143684,17.1867316 3.20559474,16.9225737 L4.39375263,15.7344158 C4.65791053,15.4691526 5.08675263,15.4691526 5.35091053,15.7344158 C5.61617368,15.9985737 5.61617368,16.4274158 5.35091053,16.6915737 L4.16275263,17.8797316 C3.89859474,18.1438895 3.46975263,18.1438895 3.20559474,17.8797316" id="Fill-15" fill="#666666"></path>
            <path d="M15.3742105,15.4134474 L15.3742105,15.4134474 C15.6383684,15.1492895 16.0672105,15.1492895 16.3313684,15.4134474 L17.5195263,16.6016053 C17.7847895,16.8657632 17.7847895,17.2946053 17.5195263,17.5587632 C17.2564737,17.8240263 16.8265263,17.8240263 16.5623684,17.5587632 L15.3742105,16.3706053 C15.1100526,16.1064474 15.1100526,15.6776053 15.3742105,15.4134474" id="Fill-17" fill="#666666"></path>
            <path d="M2.92817368,2.9673 L2.92817368,2.9673 C3.19233158,2.70314211 3.62117368,2.70314211 3.88533158,2.9673 L5.07348947,4.15545789 C5.33875263,4.41961579 5.33875263,4.84845789 5.07348947,5.11261579 C4.80933158,5.37787895 4.38048947,5.37787895 4.11633158,5.11261579 L2.92817368,3.92445789 C2.66401579,3.6603 2.66401579,3.23145789 2.92817368,2.9673" id="Fill-19" fill="#666666"></path>
        </g>
        <g id="Group-5" transform="translate(19.000000, 18.000000)" stroke="#666666" stroke-linecap="round" stroke-linejoin="round" stroke-width="1.3">
            <path d="M15.4779429,7.11085714 C15.5328,7.45028571 15.5568,7.79885714 15.5568,8.15314286 C15.5568,12.2377143 12.2379429,15.5565714 8.14537143,15.5565714 C4.06194286,15.5565714 0.741942857,12.2377143 0.741942857,8.15314286 C0.741942857,4.06057143 4.06194286,0.742857143 8.14537143,0.742857143 C8.32708571,0.742857143 8.5088,0.750857143 8.68365714,0.765714286" id="Stroke-1"></path>
            <path d="M8.68331429,0.766057143 C6.61245714,1.47005714 5.11988571,3.43691429 5.11988571,5.7432 C5.11988571,8.65862857 7.48217143,11.0220571 10.3896,11.0220571 C12.8307429,11.0220571 14.8856,9.36148571 15.4776,7.1112" id="Stroke-3"></path>
        </g>
    </g>
</svg>